<?xml version="1.0" standalone="no"?>
<!DOCTYPE svg PUBLIC "-//W3C//DTD SVG 20010904//EN"
 "http://www.w3.org/TR/2001/REC-SVG-20010904/DTD/svg10.dtd">
<svg version="1.0" xmlns="http://www.w3.org/2000/svg"
 width="225.000000pt" height="225.000000pt" viewBox="0 0 225.000000 225.000000"
 preserveAspectRatio="xMidYMid meet">
<metadata>
Created by potrace 1.11, written by Peter Selinger 2001-2013
</metadata>
<g transform="translate(0.000000,225.000000) scale(0.100000,-0.100000)"
fill="#000000" stroke="none">
<path d="M986 2110 c-228 -36 -425 -138 -578 -298 -122 -128 -204 -273 -249
-442 -20 -74 -23 -108 -23 -255 0 -155 3 -178 28 -260 117 -389 395 -638 804
-720 l32 -7 0 70 0 69 -87 21 c-49 12 -121 38 -161 58 -69 34 -193 136 -181
148 3 3 255 5 560 4 l554 -3 -58 -57 c-71 -70 -168 -120 -289 -150 l-88 -21 0
-69 c0 -37 2 -68 4 -68 3 0 35 7 73 15 375 79 661 354 765 733 31 111 31 373
0 484 -83 304 -285 545 -560 670 -150 68 -390 102 -546 78z m182 -80 c24 -27
52 -95 52 -126 0 -70 -41 -122 -324 -402 -242 -239 -278 -278 -307 -338 -29
-59 -34 -79 -34 -144 0 -41 4 -93 8 -115 l8 -40 -30 35 c-16 19 -42 60 -58 90
-24 47 -28 67 -28 140 0 143 11 158 326 472 282 281 323 333 335 421 7 50 14
51 52 7z m275 -90 c22 -42 27 -65 24 -97 -10 -92 -34 -123 -372 -458 -340
-339 -360 -364 -396 -490 l-17 -60 -27 58 c-37 80 -33 156 14 253 31 62 64 98
324 354 299 294 382 392 394 462 3 22 11 37 17 35 6 -1 24 -27 39 -57z m107
-301 c0 -108 -19 -134 -321 -437 -256 -257 -268 -270 -310 -356 -43 -88 -44
-91 -44 -192 l0 -103 -23 22 c-69 64 -98 196 -67 302 35 123 53 145 384 480
231 233 322 332 336 364 l19 44 13 -29 c7 -16 12 -59 13 -95z m229 -103 c2
-102 -15 -124 -304 -411 -313 -311 -356 -370 -374 -515 l-7 -55 -31 48 c-39
60 -57 132 -48 189 16 95 45 131 375 463 178 180 327 339 341 363 l23 43 12
-33 c7 -18 13 -60 13 -92z m-21 -335 c-7 -108 -28 -143 -188 -303 -150 -151
-204 -220 -230 -299 l-18 -52 -22 43 c-18 35 -21 56 -18 109 6 118 34 159 262
386 111 110 205 198 210 196 4 -2 6 -38 4 -80z"/>
</g>
</svg>
